<?xml version="1.0" standalone="no"?>
<!DOCTYPE svg PUBLIC "-//W3C//DTD SVG 20010904//EN"
 "http://www.w3.org/TR/2001/REC-SVG-20010904/DTD/svg10.dtd">
<svg version="1.0" xmlns="http://www.w3.org/2000/svg"
 width="512.000000pt" height="512.000000pt" viewBox="0 0 512.000000 512.000000"
 preserveAspectRatio="xMidYMid meet">

<g transform="translate(0.000000,512.000000) scale(0.100000,-0.100000)"
fill="#000000" stroke="none">
<path d="M1102 4339 c-28 -14 -51 -36 -68 -66 -23 -37 -26 -53 -22 -106 3 -55
22 -102 170 -422 91 -198 196 -427 233 -510 l68 -150 8 -125 c10 -144 32 -319
60 -469 10 -58 18 -106 16 -107 -2 -2 -62 66 -135 151 -273 319 -516 485 -710
485 -170 0 -264 -113 -248 -298 42 -462 615 -1466 1210 -2117 265 -290 520
-492 721 -571 62 -24 84 -28 185 -28 138 -1 185 15 318 104 339 227 828 878
1182 1573 82 162 85 169 85 236 0 83 -18 114 -85 149 -77 39 -154 23 -186 -40
-19 -37 -14 -100 11 -128 15 -17 12 -25 -44 -138 -128 -255 -317 -567 -486
-802 -299 -414 -616 -720 -747 -720 -49 0 -65 23 -70 99 -4 57 -8 67 -36 92
-41 37 -105 40 -147 8 l-27 -22 22 44 c50 100 130 222 247 376 68 90 123 173
123 184 0 40 -63 341 -120 574 -32 132 -60 249 -62 260 -2 11 -5 22 -8 25 -3
3 -21 57 -39 120 -19 63 -66 210 -106 327 l-72 212 36 -15 c20 -8 52 -25 71
-38 101 -66 97 -71 39 46 -39 78 -61 111 -88 129 -19 13 -64 51 -99 84 -57 53
-71 74 -133 204 -70 146 -77 174 -59 228 12 34 2 54 -183 348 -275 440 -541
773 -654 821 -48 21 -121 17 -171 -7z m597 -1575 c70 -89 161 -509 161 -741 0
-126 -6 -153 -30 -153 -72 0 -190 478 -190 766 0 149 16 183 59 128z"/>
<path d="M3830 3007 c-41 -15 -166 -101 -264 -183 l-69 -57 49 -21 c112 -49
152 -83 174 -152 10 -30 9 -43 -5 -80 -47 -123 -304 -211 -537 -185 -97 11
-78 25 -189 -137 l-71 -103 124 2 c104 2 134 -1 198 -20 180 -55 266 -135 252
-233 -10 -68 -118 -148 -249 -184 -79 -22 -254 -29 -353 -15 -45 7 -83 11 -85
9 -8 -9 -15 -588 -7 -588 5 0 38 44 73 98 74 114 259 305 359 372 113 75 207
166 252 244 149 257 307 464 520 678 133 135 159 165 173 209 47 140 -28 298
-163 343 -54 19 -134 20 -182 3z"/>
</g>
</svg>
